<svg width="31" height="36" viewBox="0 0 31 36" fill="none" xmlns="http://www.w3.org/2000/svg">
<path d="M14 22.3333V25.6666C11.3479 25.6666 8.80432 26.7202 6.92895 28.5956C5.05359 30.4709 4.00002 33.0145 4.00002 35.6666H0.666687C0.666687 32.1304 2.07145 28.739 4.57193 26.2385C7.07242 23.738 10.4638 22.3333 14 22.3333ZM14 20.6666C8.47502 20.6666 4.00002 16.1916 4.00002 10.6666C4.00002 5.14163 8.47502 0.666626 14 0.666626C19.525 0.666626 24 5.14163 24 10.6666C24 16.1916 19.525 20.6666 14 20.6666ZM14 17.3333C17.6834 17.3333 20.6667 14.35 20.6667 10.6666C20.6667 6.98329 17.6834 3.99996 14 3.99996C10.3167 3.99996 7.33335 6.98329 7.33335 10.6666C7.33335 14.35 10.3167 17.3333 14 17.3333ZM29 27.3333H30.6667V35.6666H17.3334V27.3333H19V25.6666C19 24.3405 19.5268 23.0688 20.4645 22.1311C21.4022 21.1934 22.6739 20.6666 24 20.6666C25.3261 20.6666 26.5979 21.1934 27.5356 22.1311C28.4732 23.0688 29 24.3405 29 25.6666V27.3333ZM25.6667 27.3333V25.6666C25.6667 25.2246 25.4911 24.8007 25.1785 24.4881C24.866 24.1756 24.442 24 24 24C23.558 24 23.1341 24.1756 22.8215 24.4881C22.5089 24.8007 22.3334 25.2246 22.3334 25.6666V27.3333H25.6667Z" fill="white"/>
</svg>
