<svg width="40" height="32" viewBox="0 0 40 32" fill="none" xmlns="http://www.w3.org/2000/svg">
<path d="M28.3333 30.5833H36.6667C37.2192 30.5833 37.7491 30.3638 38.1398 29.9731C38.5305 29.5824 38.75 29.0525 38.75 28.5V26.4166C38.75 24.759 38.0915 23.1693 36.9194 21.9972C35.7473 20.8251 34.1576 20.1666 32.5 20.1666H28.3333M23.675 11.8333C24.5189 12.7768 25.6293 13.4418 26.8594 13.7403C28.0894 14.0388 29.3812 13.9569 30.5636 13.5052C31.7461 13.0535 32.7635 12.2535 33.4813 11.2109C34.1991 10.1684 34.5835 8.93241 34.5835 7.66663C34.5835 6.40085 34.1991 5.1649 33.4813 4.12233C32.7635 3.07976 31.7461 2.27971 30.5636 1.82805C29.3812 1.37639 28.0894 1.29441 26.8594 1.59296C25.6293 1.8915 24.5189 2.5565 23.675 3.49996M1.25 28.5V26.4166C1.25 24.759 1.90848 23.1693 3.08058 21.9972C4.25269 20.8251 5.8424 20.1666 7.5 20.1666H15.8333C17.4909 20.1666 19.0806 20.8251 20.2528 21.9972C21.4249 23.1693 22.0833 24.759 22.0833 26.4166V28.5C22.0833 29.0525 21.8638 29.5824 21.4731 29.9731C21.0824 30.3638 20.5525 30.5833 20 30.5833H3.33333C2.7808 30.5833 2.25089 30.3638 1.86019 29.9731C1.46949 29.5824 1.25 29.0525 1.25 28.5ZM17.9167 7.66663C17.9167 9.32423 17.2582 10.9139 16.0861 12.086C14.914 13.2581 13.3243 13.9166 11.6667 13.9166C10.0091 13.9166 8.41935 13.2581 7.24725 12.086C6.07515 10.9139 5.41667 9.32423 5.41667 7.66663C5.41667 6.00902 6.07515 4.41931 7.24725 3.24721C8.41935 2.07511 10.0091 1.41663 11.6667 1.41663C13.3243 1.41663 14.914 2.07511 16.0861 3.24721C17.2582 4.41931 17.9167 6.00902 17.9167 7.66663Z" stroke="white" stroke-width="2" stroke-linecap="round"/>
</svg>
