<svg width="24" height="24" viewBox="0 0 24 24" fill="none" xmlns="http://www.w3.org/2000/svg">
<path fill-rule="evenodd" clip-rule="evenodd" d="M7.34532 4.01717C10.4392 3.67462 13.5614 3.67462 16.6553 4.01717C18.3683 4.20917 19.7503 5.55817 19.9513 7.27717C20.3179 10.4152 20.3179 13.5852 19.9513 16.7232C19.7503 18.4422 18.3683 19.7912 16.6553 19.9832C13.5614 20.3257 10.4392 20.3257 7.34532 19.9832C5.63232 19.7912 4.25032 18.4422 4.04932 16.7232C3.68278 13.5855 3.68278 10.4158 4.04932 7.27817C4.15099 6.44304 4.5317 5.66671 5.12976 5.07501C5.72781 4.48331 6.50816 4.11091 7.34432 4.01817M12.0003 7.00717C12.1992 7.00717 12.39 7.08619 12.5307 7.22684C12.6713 7.36749 12.7503 7.55826 12.7503 7.75717V11.2502H16.2433C16.4422 11.2502 16.633 11.3292 16.7737 11.4698C16.9143 11.6105 16.9933 11.8013 16.9933 12.0002C16.9933 12.1991 16.9143 12.3898 16.7737 12.5305C16.633 12.6712 16.4422 12.7502 16.2433 12.7502H12.7503V16.2432C12.7503 16.4421 12.6713 16.6328 12.5307 16.7735C12.39 16.9142 12.1992 16.9932 12.0003 16.9932C11.8014 16.9932 11.6106 16.9142 11.47 16.7735C11.3293 16.6328 11.2503 16.4421 11.2503 16.2432V12.7502H7.75732C7.55841 12.7502 7.36765 12.6712 7.22699 12.5305C7.08634 12.3898 7.00732 12.1991 7.00732 12.0002C7.00732 11.8013 7.08634 11.6105 7.22699 11.4698C7.36765 11.3292 7.55841 11.2502 7.75732 11.2502H11.2503V7.75717C11.2503 7.55826 11.3293 7.36749 11.47 7.22684C11.6106 7.08619 11.8014 7.00717 12.0003 7.00717Z" fill="white"/>
</svg>
