<svg width="30" height="30" viewBox="0 0 30 30" fill="none" xmlns="http://www.w3.org/2000/svg">
<path fill-rule="evenodd" clip-rule="evenodd" d="M22.5 5.00002L27.5 10V25H2.49994L2.49988 11.367C3.09156 12.2665 3.91873 13.3069 4.9999 14.1892L4.99996 22.5H24.9999V10.625L21.875 7.49998L19.5467 7.5001C19.2279 6.8759 18.6921 5.94795 17.9216 5.00002H22.5ZM22.5 18.75V20H7.49998V18.75H22.5ZM22.5 15V16.25H15V15.0564C15.0317 15.0378 15.0632 15.019 15.0946 15H22.5ZM10.625 2.5C16.3125 2.5 18.75 8.75002 18.75 8.75002C18.75 8.75002 16.3125 15 10.625 15C4.93744 15 2.49994 8.75002 2.49994 8.75002C2.49994 8.75002 4.93744 2.5 10.625 2.5ZM10.625 4.06252C7.03374 4.06252 4.93744 7.40623 4.27931 8.75002C4.93744 10.0938 7.03369 13.4375 10.625 13.4375C14.2162 13.4375 16.3125 10.0938 16.9706 8.75002C16.3125 7.40623 14.2162 4.06252 10.625 4.06252ZM10.625 6.01562C12.1955 6.01562 13.4687 7.23982 13.4687 8.75002C13.4687 10.2602 12.1955 11.4844 10.625 11.4844C9.05441 11.4844 7.78123 10.2602 7.78123 8.75002C7.78123 7.23982 9.05441 6.01562 10.625 6.01562ZM10.625 7.57814C9.95189 7.57814 9.40621 8.10279 9.40621 8.75002C9.40621 9.39725 9.95189 9.92189 10.625 9.92189C11.298 9.92189 11.8437 9.39719 11.8437 8.75002C11.8437 8.10285 11.2981 7.57814 10.625 7.57814Z" fill="#CB1E2A"/>
</svg>
