<svg width="30" height="30" viewBox="0 0 30 30" fill="none" xmlns="http://www.w3.org/2000/svg">
<path d="M9.11396 26.0302L2.5 27.5L3.96976 20.886C3.0318 19.132 2.5 17.1281 2.5 15C2.5 8.09644 8.09644 2.5 15 2.5C21.9035 2.5 27.5 8.09644 27.5 15C27.5 21.9035 21.9035 27.5 15 27.5C12.8719 27.5 10.868 26.9682 9.11396 26.0302ZM9.47594 23.3887L10.2928 23.8256C11.7281 24.5931 13.3319 25 15 25C20.5229 25 25 20.5229 25 15C25 9.47715 20.5229 5 15 5C9.47715 5 5 9.47715 5 15C5 16.6681 5.40686 18.2719 6.17436 19.7071L6.6112 20.524L5.7927 24.2072L9.47594 23.3887ZM8.75 15H11.25C11.25 17.0711 12.9289 18.75 15 18.75C17.0711 18.75 18.75 17.0711 18.75 15H21.25C21.25 18.4517 18.4517 21.25 15 21.25C11.5482 21.25 8.75 18.4517 8.75 15Z" fill="#CB1E2A"/>
</svg>
