<svg width="30" height="30" viewBox="0 0 30 30" fill="none" xmlns="http://www.w3.org/2000/svg">
<path d="M6.25 26.25C5.5625 26.25 4.97417 26.0054 4.485 25.5163C3.99583 25.0271 3.75083 24.4383 3.75 23.75V6.25C3.75 5.5625 3.995 4.97417 4.485 4.485C4.975 3.99584 5.56333 3.75084 6.25 3.75H16.25C16.6042 3.75 16.9012 3.87 17.1412 4.11C17.3812 4.35 17.5008 4.64667 17.5 5C17.4992 5.35334 17.3792 5.65042 17.14 5.89125C16.9008 6.13209 16.6042 6.25167 16.25 6.25H6.25V23.75H23.75V13.75C23.75 13.3958 23.87 13.0992 24.11 12.86C24.35 12.6208 24.6467 12.5008 25 12.5C25.3533 12.4992 25.6504 12.6192 25.8912 12.86C26.1321 13.1008 26.2517 13.3975 26.25 13.75V23.75C26.25 24.4375 26.0054 25.0263 25.5162 25.5163C25.0271 26.0063 24.4383 26.2508 23.75 26.25H6.25ZM11.25 21.25C10.8958 21.25 10.5992 21.13 10.36 20.89C10.1208 20.65 10.0008 20.3533 10 20C9.99917 19.6467 10.1192 19.35 10.36 19.11C10.6008 18.87 10.8975 18.75 11.25 18.75H18.75C19.1042 18.75 19.4012 18.87 19.6412 19.11C19.8812 19.35 20.0008 19.6467 20 20C19.9992 20.3533 19.8792 20.6504 19.64 20.8913C19.4008 21.1321 19.1042 21.2517 18.75 21.25H11.25ZM11.25 17.5C10.8958 17.5 10.5992 17.38 10.36 17.14C10.1208 16.9 10.0008 16.6033 10 16.25C9.99917 15.8967 10.1192 15.6 10.36 15.36C10.6008 15.12 10.8975 15 11.25 15H18.75C19.1042 15 19.4012 15.12 19.6412 15.36C19.8812 15.6 20.0008 15.8967 20 16.25C19.9992 16.6033 19.8792 16.9004 19.64 17.1413C19.4008 17.3821 19.1042 17.5017 18.75 17.5H11.25ZM11.25 13.75C10.8958 13.75 10.5992 13.63 10.36 13.39C10.1208 13.15 10.0008 12.8533 10 12.5C9.99917 12.1467 10.1192 11.85 10.36 11.61C10.6008 11.37 10.8975 11.25 11.25 11.25H18.75C19.1042 11.25 19.4012 11.37 19.6412 11.61C19.8812 11.85 20.0008 12.1467 20 12.5C19.9992 12.8533 19.8792 13.1504 19.64 13.3913C19.4008 13.6321 19.1042 13.7517 18.75 13.75H11.25ZM22.5 11.25C22.1458 11.25 21.8492 11.13 21.61 10.89C21.3708 10.65 21.2508 10.3533 21.25 10V8.75H20C19.6458 8.75 19.3492 8.63 19.11 8.39C18.8708 8.15 18.7508 7.85334 18.75 7.5C18.7492 7.14667 18.8692 6.85 19.11 6.61C19.3508 6.37 19.6475 6.25 20 6.25H21.25V5C21.25 4.64584 21.37 4.34917 21.61 4.11C21.85 3.87084 22.1467 3.75084 22.5 3.75C22.8533 3.74917 23.1504 3.86917 23.3912 4.11C23.6321 4.35084 23.7517 4.6475 23.75 5V6.25H25C25.3542 6.25 25.6512 6.37 25.8912 6.61C26.1312 6.85 26.2508 7.14667 26.25 7.5C26.2492 7.85334 26.1292 8.15042 25.89 8.39125C25.6508 8.63209 25.3542 8.75167 25 8.75H23.75V10C23.75 10.3542 23.63 10.6513 23.39 10.8913C23.15 11.1313 22.8533 11.2508 22.5 11.25Z" fill="#CB1E2A"/>
</svg>
