<svg width="30" height="30" viewBox="0 0 30 30" fill="none" xmlns="http://www.w3.org/2000/svg">
<path d="M17.5 26.25C17.1685 26.25 16.8505 26.1183 16.6161 25.8839C16.3817 25.6495 16.25 25.3315 16.25 25V15C16.25 14.6685 16.3817 14.3505 16.6161 14.1161C16.8505 13.8817 17.1685 13.75 17.5 13.75H25C25.3315 13.75 25.6495 13.8817 25.8839 14.1161C26.1183 14.3505 26.25 14.6685 26.25 15V25C26.25 25.3315 26.1183 25.6495 25.8839 25.8839C25.6495 26.1183 25.3315 26.25 25 26.25H17.5ZM5 16.25C4.66848 16.25 4.35054 16.1183 4.11612 15.8839C3.8817 15.6495 3.75 15.3315 3.75 15V5C3.75 4.66848 3.8817 4.35054 4.11612 4.11612C4.35054 3.8817 4.66848 3.75 5 3.75H12.5C12.8315 3.75 13.1495 3.8817 13.3839 4.11612C13.6183 4.35054 13.75 4.66848 13.75 5V15C13.75 15.3315 13.6183 15.6495 13.3839 15.8839C13.1495 16.1183 12.8315 16.25 12.5 16.25H5ZM11.25 13.75V6.25H6.25V13.75H11.25ZM5 26.25C4.66848 26.25 4.35054 26.1183 4.11612 25.8839C3.8817 25.6495 3.75 25.3315 3.75 25V20C3.75 19.6685 3.8817 19.3505 4.11612 19.1161C4.35054 18.8817 4.66848 18.75 5 18.75H12.5C12.8315 18.75 13.1495 18.8817 13.3839 19.1161C13.6183 19.3505 13.75 19.6685 13.75 20V25C13.75 25.3315 13.6183 25.6495 13.3839 25.8839C13.1495 26.1183 12.8315 26.25 12.5 26.25H5ZM6.25 23.75H11.25V21.25H6.25V23.75ZM18.75 23.75H23.75V16.25H18.75V23.75ZM16.25 5C16.25 4.66848 16.3817 4.35054 16.6161 4.11612C16.8505 3.8817 17.1685 3.75 17.5 3.75H25C25.3315 3.75 25.6495 3.8817 25.8839 4.11612C26.1183 4.35054 26.25 4.66848 26.25 5V10C26.25 10.3315 26.1183 10.6495 25.8839 10.8839C25.6495 11.1183 25.3315 11.25 25 11.25H17.5C17.1685 11.25 16.8505 11.1183 16.6161 10.8839C16.3817 10.6495 16.25 10.3315 16.25 10V5ZM18.75 6.25V8.75H23.75V6.25H18.75Z" fill="#CB1E2A"/>
</svg>
