<svg width="22" height="22" viewBox="0 0 22 22" fill="none" xmlns="http://www.w3.org/2000/svg">
<path d="M9.16634 3.6665C8.19388 3.6665 7.26125 4.05281 6.57362 4.74045C5.88598 5.42808 5.49967 6.36071 5.49967 7.33317C5.49967 8.30563 5.88598 9.23826 6.57362 9.9259C7.26125 10.6135 8.19388 10.9998 9.16634 10.9998C10.1388 10.9998 11.0714 10.6135 11.7591 9.9259C12.4467 9.23826 12.833 8.30563 12.833 7.33317C12.833 6.36071 12.4467 5.42808 11.7591 4.74045C11.0714 4.05281 10.1388 3.6665 9.16634 3.6665ZM9.16634 5.49984C9.65257 5.49984 10.1189 5.69299 10.4627 6.03681C10.8065 6.38062 10.9997 6.84694 10.9997 7.33317C10.9997 7.8194 10.8065 8.28572 10.4627 8.62953C10.1189 8.97335 9.65257 9.1665 9.16634 9.1665C8.68011 9.1665 8.2138 8.97335 7.86998 8.62953C7.52616 8.28572 7.33301 7.8194 7.33301 7.33317C7.33301 6.84694 7.52616 6.38062 7.86998 6.03681C8.2138 5.69299 8.68011 5.49984 9.16634 5.49984ZM9.16634 11.9165C6.71884 11.9165 1.83301 13.1357 1.83301 15.5832V18.3332H10.5413C10.3106 17.7777 10.1654 17.1905 10.1105 16.5915H3.57467V15.5832C3.57467 14.9965 6.44384 13.6582 9.16634 13.6582C9.62467 13.6582 10.083 13.704 10.5413 13.7773C10.7766 13.1985 11.1014 12.6602 11.5038 12.1823C10.6422 12.0082 9.81717 11.9165 9.16634 11.9165ZM16.0413 11.9165C13.7497 11.9165 11.9163 13.7498 11.9163 16.0415C11.9163 18.3332 13.7497 20.1665 16.0413 20.1665C18.333 20.1665 20.1663 18.3332 20.1663 16.0415C20.1663 13.7498 18.333 11.9165 16.0413 11.9165ZM16.0413 13.2915C17.563 13.2915 18.7913 14.5198 18.7913 16.0415C18.7913 16.5548 18.6538 17.0315 18.4063 17.4165L14.6663 13.6765C15.0513 13.429 15.528 13.2915 16.0413 13.2915ZM13.6763 14.6665L17.4163 18.4065C17.0313 18.654 16.5547 18.7915 16.0413 18.7915C14.5197 18.7915 13.2913 17.5632 13.2913 16.0415C13.2913 15.5282 13.4288 15.0515 13.6763 14.6665Z" fill="white"/>
</svg>
