<svg width="30" height="30" viewBox="0 0 30 30" fill="none" xmlns="http://www.w3.org/2000/svg">
<path d="M20 7.84995C19.9999 8.6021 19.7025 9.3237 19.1725 9.85745C17.9525 11.0875 16.7688 12.37 15.5025 13.555C15.3612 13.6837 15.1757 13.7533 14.9845 13.7494C14.7933 13.7454 14.611 13.6682 14.475 13.5337L10.8275 9.8587C10.297 9.32476 9.99927 8.60264 9.99927 7.84995C9.99927 7.09727 10.297 6.37514 10.8275 5.8412C11.0921 5.57468 11.4068 5.36315 11.7535 5.2188C12.1002 5.07445 12.472 5.00013 12.8475 5.00013C13.2231 5.00013 13.5949 5.07445 13.9416 5.2188C14.2883 5.36315 14.603 5.57468 14.8675 5.8412L15 5.97495L15.1325 5.8412C15.5297 5.43978 16.0372 5.16562 16.5907 5.05361C17.1441 4.9416 17.7184 4.99681 18.2403 5.21222C18.7623 5.42762 19.2084 5.79348 19.5217 6.26321C19.8351 6.73294 20.0016 7.28529 20 7.84995Z" stroke="#CB1E2A" stroke-width="1.5" stroke-linejoin="round"/>
<path d="M22.5 25L27.28 20.22C27.4207 20.0795 27.4998 19.8888 27.5 19.69V13.125C27.5 12.6277 27.3025 12.1508 26.9508 11.7992C26.5992 11.4475 26.1223 11.25 25.625 11.25C25.1277 11.25 24.6508 11.4475 24.2992 11.7992C23.9475 12.1508 23.75 12.6277 23.75 13.125V18.75" stroke="#CB1E2A" stroke-width="1.5" stroke-linecap="round" stroke-linejoin="round"/>
<path d="M22.5 20L23.5725 18.9275C23.6291 18.8714 23.6739 18.8046 23.7044 18.731C23.7349 18.6574 23.7504 18.5784 23.75 18.4987C23.7491 18.3865 23.7174 18.2766 23.6583 18.1812C23.5993 18.0857 23.5151 18.0084 23.415 17.9575L22.8612 17.6813C22.3921 17.4467 21.8611 17.3656 21.3433 17.4495C20.8256 17.5334 20.3473 17.778 19.9762 18.1488L18.8575 19.2675C18.3886 19.7362 18.1251 20.372 18.125 21.035V25M7.5 25L2.72 20.22C2.57931 20.0795 2.50018 19.8888 2.5 19.69V13.125C2.5 12.6277 2.69754 12.1508 3.04917 11.7992C3.40081 11.4475 3.87772 11.25 4.375 11.25C4.87228 11.25 5.34919 11.4475 5.70083 11.7992C6.05246 12.1508 6.25 12.6277 6.25 13.125V18.75" stroke="#CB1E2A" stroke-width="1.5" stroke-linecap="round" stroke-linejoin="round"/>
<path d="M7.5 19.9999L6.4275 18.9274C6.3155 18.8126 6.25195 18.6591 6.25 18.4987C6.25 18.2699 6.38 18.0612 6.585 17.9574L7.13875 17.6812C7.60789 17.4466 8.13892 17.3655 8.65668 17.4494C9.17444 17.5333 9.6527 17.778 10.0238 18.1487L11.1425 19.2674C11.6114 19.7362 11.8749 20.3719 11.875 21.0349V24.9999" stroke="#CB1E2A" stroke-width="1.5" stroke-linecap="round" stroke-linejoin="round"/>
</svg>
