<svg width="30" height="30" viewBox="0 0 30 30" fill="none" xmlns="http://www.w3.org/2000/svg">
<path d="M20 23.75H25C25.3315 23.75 25.6495 23.6183 25.8839 23.3839C26.1183 23.1495 26.25 22.8315 26.25 22.5V21.25C26.25 20.2554 25.8549 19.3016 25.1517 18.5984C24.4484 17.8951 23.4946 17.5 22.5 17.5H20M17.205 12.5C17.7113 13.0661 18.3776 13.4651 19.1156 13.6442C19.8537 13.8233 20.6287 13.7741 21.3382 13.5031C22.0476 13.2322 22.6581 12.7521 23.0888 12.1266C23.5195 11.501 23.7501 10.7595 23.7501 10C23.7501 9.24053 23.5195 8.49896 23.0888 7.87342C22.6581 7.24788 22.0476 6.76785 21.3382 6.49685C20.6287 6.22586 19.8537 6.17667 19.1156 6.3558C18.3776 6.53493 17.7113 6.93393 17.205 7.5M3.75 22.5V21.25C3.75 20.2554 4.14509 19.3016 4.84835 18.5984C5.55161 17.8951 6.50544 17.5 7.5 17.5H12.5C13.4946 17.5 14.4484 17.8951 15.1517 18.5984C15.8549 19.3016 16.25 20.2554 16.25 21.25V22.5C16.25 22.8315 16.1183 23.1495 15.8839 23.3839C15.6495 23.6183 15.3315 23.75 15 23.75H5C4.66848 23.75 4.35054 23.6183 4.11612 23.3839C3.8817 23.1495 3.75 22.8315 3.75 22.5ZM13.75 10C13.75 10.9946 13.3549 11.9484 12.6517 12.6517C11.9484 13.3549 10.9946 13.75 10 13.75C9.00544 13.75 8.05161 13.3549 7.34835 12.6517C6.64509 11.9484 6.25 10.9946 6.25 10C6.25 9.00544 6.64509 8.05161 7.34835 7.34835C8.05161 6.64509 9.00544 6.25 10 6.25C10.9946 6.25 11.9484 6.64509 12.6517 7.34835C13.3549 8.05161 13.75 9.00544 13.75 10Z" stroke="#CB1E2A" stroke-width="2" stroke-linecap="round"/>
</svg>
