<svg width="30" height="30" viewBox="0 0 30 30" fill="none" xmlns="http://www.w3.org/2000/svg">
<path d="M13.462 28.6673C17.8816 28.6673 20.9829 26.2689 22.6527 21.5605L24.8625 15.3451C25.4148 13.7755 24.9129 12.4828 23.6068 12.0055C22.439 11.5785 21.284 12.0805 20.7316 13.3743L19.9157 15.3832C19.8906 15.4335 19.8531 15.471 19.8027 15.471C19.74 15.471 19.7148 15.4207 19.7148 15.358V5.28819C19.7148 3.81926 18.7982 2.90265 17.392 2.90265C16.8772 2.90265 16.4127 3.07836 16.0607 3.40515C15.8979 2.12426 15.0691 1.33301 13.8263 1.33301C12.6081 1.33301 11.7541 2.14944 11.5656 3.37944C11.2522 3.06604 10.8 2.90265 10.3479 2.90265C9.04235 2.90265 8.1761 3.80694 8.1761 5.20087V6.59372C7.83699 6.24229 7.33503 6.05426 6.79503 6.05426C5.48896 6.05426 4.58521 7.02069 4.58521 8.42747V19.2125C4.58521 25.0887 8.15092 28.6673 13.462 28.6673ZM13.3993 26.9219C8.95449 26.9219 6.24217 24.0719 6.24217 19.0116V8.60265C6.24217 8.07551 6.58128 7.6989 7.10896 7.6989C7.62324 7.6989 8.00038 8.07551 8.00038 8.60319V15.0189C8.00038 15.4834 8.37699 15.7973 8.77878 15.7973C9.20574 15.7973 9.59467 15.4834 9.59467 15.0189V5.42694C9.59467 4.88694 9.93378 4.52265 10.4486 4.52265C10.9757 4.52265 11.34 4.88694 11.34 5.42694V14.3787C11.34 14.8437 11.7166 15.1576 12.1313 15.1576C12.5577 15.1576 12.9472 14.8437 12.9472 14.3793V3.86961C12.9472 3.34194 13.2986 2.95301 13.8257 2.95301C14.3282 2.95301 14.6925 3.34194 14.6925 3.86908V14.3787C14.6925 14.818 15.044 15.1571 15.4832 15.1571C15.9102 15.1571 16.2868 14.818 16.2868 14.3787V5.4264C16.2868 4.8864 16.6511 4.52211 17.1659 4.52211C17.6931 4.52211 18.0445 4.8864 18.0445 5.4264V17.7805C18.0445 18.358 18.4088 18.7726 18.9365 18.7726C19.3881 18.7726 19.7652 18.5718 20.054 17.9439L21.7613 14.1269C21.9873 13.5869 22.4395 13.311 22.904 13.4868C23.4059 13.6877 23.5822 14.1644 23.3432 14.8175L21.1211 21.02C19.589 25.3019 16.9023 26.9214 13.3993 26.9214" fill="#CB1E2A"/>
</svg>
